<svg width="1440" height="829" viewBox="0 0 1440 829" fill="none" xmlns="http://www.w3.org/2000/svg">
<g style="mix-blend-mode:multiply" opacity="0.3">
<path d="M919 65.7041V368.38L1015 452.481V726.686H1136H1287.5V690.33H1439" stroke="#2FB2FF" stroke-width="2" stroke-linecap="round"/>
</g>
<g style="mix-blend-mode:multiply" opacity="0.3">
<path d="M-1 154.309C-1.55228 154.309 -2 153.861 -2 153.309C-2 152.757 -1.55228 152.309 -1 152.309L-1 154.309ZM284.5 153.309L284.5 152.309L284.835 152.309L285.102 152.51L284.5 153.309ZM570.5 368.818L570.5 369.818L570.165 369.818L569.898 369.617L570.5 368.818ZM1083 367.818L1084 367.818L1084 369.818L1083 369.818L1083 367.818ZM-1 152.309L284.5 152.309L284.5 154.309L-1 154.309L-1 152.309ZM285.102 152.51L571.102 368.019L569.898 369.617L283.898 154.108L285.102 152.51ZM570.5 367.818L1083 367.818L1083 369.818L570.5 369.818L570.5 367.818Z" fill="#2FB2FF"/>
</g>
<g style="mix-blend-mode:multiply" opacity="0.3">
<path d="M1083 504.73C1083.55 504.73 1084 504.283 1084 503.73C1084 503.178 1083.55 502.73 1083 502.73L1083 504.73ZM797.5 503.73L797.5 502.73L797.165 502.73L796.898 502.932L797.5 503.73ZM511.5 719.239L511.5 720.239L511.835 720.239L512.102 720.038L511.5 719.239ZM-1.00001 718.239L-2.00001 718.239L-2.00001 720.239L-1.00001 720.239L-1.00001 718.239ZM1083 502.73L797.5 502.73L797.5 504.73L1083 504.73L1083 502.73ZM796.898 502.932L510.898 718.441L512.102 720.038L798.102 504.529L796.898 502.932ZM511.5 718.239L-1.00001 718.239L-1.00001 720.239L511.5 720.239L511.5 718.239Z" fill="#2FB2FF"/>
</g>
<g style="mix-blend-mode:multiply" opacity="0.3">
<path d="M1440.5 224.5C1441.05 224.5 1441.5 224.052 1441.5 223.5C1441.5 222.948 1441.05 222.5 1440.5 222.5V224.5ZM1149.5 223.5V222.5H1148.5V223.5H1149.5ZM1149.5 475H1148.5V475.449L1148.84 475.748L1149.5 475ZM1239 554.5H1240V554.051L1239.66 553.752L1239 554.5ZM1238 827.5V828.5H1240V827.5H1238ZM1440.5 222.5H1149.5V224.5H1440.5V222.5ZM1148.5 223.5V475H1150.5V223.5H1148.5ZM1148.84 475.748L1238.34 555.248L1239.66 553.752L1150.16 474.252L1148.84 475.748ZM1238 554.5V827.5H1240V554.5H1238Z" fill="#2FB2FF"/>
</g>
<rect x="99" y="357.43" width="8" height="7.00842" fill="#2FB2FF"/>
<rect x="911" y="421.381" width="8" height="7.00842" fill="#2FB2FF"/>
<rect x="733" y="613.237" width="8" height="7.00842" fill="#2FB2FF"/>
<rect x="819" y="278.585" width="8" height="7.00842" fill="#2FB2FF"/>
<rect x="239" y="690.33" width="8" height="7.00842" fill="#2FB2FF"/>
<rect x="960" y="749.025" width="8" height="7.00842" fill="#2FB2FF"/>
<rect x="1315" y="392.472" width="8" height="7.00842" fill="#2FB2FF"/>
<rect x="59" y="579.947" width="8" height="7.00842" fill="#2FB2FF"/>
<rect x="1081" y="597.468" width="8" height="7.00842" fill="#2FB2FF"/>
<rect x="741" y="83.2251" width="8" height="7.00842" fill="#2FB2FF"/>
<rect x="299" y="34.166" width="8" height="7.00842" fill="#2FB2FF"/>
<rect x="22" y="145.425" width="8" height="7.00842" fill="#2FB2FF"/>
<rect x="307" y="743.769" width="18" height="17.7401" fill="#2FB2FF"/>
<rect x="1422" y="178.715" width="18" height="17.7401" fill="#2FB2FF"/>
<rect x="1086" y="316.255" width="18" height="17.7401" fill="#2FB2FF"/>
<rect x="1037" y="697.338" width="8" height="7.00842" fill="#2FB2FF"/>
</svg>
