<svg width="1444" height="870" viewBox="0 0 1444 870" fill="none" xmlns="http://www.w3.org/2000/svg">
<g style="mix-blend-mode:multiply" opacity="0.3">
<path d="M921 75V420.5L1017 516.5V829.5H1138H1289.5V788H1441" stroke="#2FB2FF" stroke-width="2" stroke-linecap="round"/>
</g>
<g style="mix-blend-mode:multiply" opacity="0.3">
<path d="M1 176C0.447715 176 2.41411e-08 175.552 0 175C-2.41411e-08 174.448 0.447715 174 1 174L1 176ZM286.5 175L286.5 174L286.871 174L287.152 174.242L286.5 175ZM572.5 421L572.5 422L572.129 422L571.848 421.758L572.5 421ZM1085 420L1086 420L1086 422L1085 422L1085 420ZM1 174L286.5 174L286.5 176L1 176L1 174ZM287.152 174.242L573.152 420.242L571.848 421.758L285.848 175.758L287.152 174.242ZM572.5 420L1085 420L1085 422L572.5 422L572.5 420Z" fill="#2FB2FF"/>
</g>
<g style="mix-blend-mode:multiply" opacity="0.3">
<path d="M1085 576C1085.55 576 1086 575.552 1086 575C1086 574.448 1085.55 574 1085 574L1085 576ZM799.5 575L799.5 574L799.129 574L798.848 574.242L799.5 575ZM513.5 821L513.5 822L513.871 822L514.152 821.758L513.5 821ZM0.999989 820L-1.07391e-05 820L-1.07669e-05 822L0.999989 822L0.999989 820ZM1085 574L799.5 574L799.5 576L1085 576L1085 574ZM798.848 574.242L512.848 820.242L514.152 821.758L800.152 575.758L798.848 574.242ZM513.5 820L0.999989 820L0.999989 822L513.5 822L513.5 820Z" fill="#2FB2FF"/>
</g>
<g style="mix-blend-mode:multiply" opacity="0.3">
<path d="M1442.5 224.5C1443.05 224.5 1443.5 224.052 1443.5 223.5C1443.5 222.948 1443.05 222.5 1442.5 222.5V224.5ZM1151.5 223.5V222.5H1150.5V223.5H1151.5ZM1151.5 475H1150.5V475.449L1150.84 475.748L1151.5 475ZM1241 554.5H1242V554.051L1241.66 553.752L1241 554.5ZM1240 827.5V828.5H1242V827.5H1240ZM1442.5 222.5H1151.5V224.5H1442.5V222.5ZM1150.5 223.5V475H1152.5V223.5H1150.5ZM1150.84 475.748L1240.34 555.248L1241.66 553.752L1152.16 474.252L1150.84 475.748ZM1240 554.5V827.5H1242V554.5H1240Z" fill="#2FB2FF"/>
</g>
<rect x="101" y="408" width="8" height="8" fill="#2FB2FF"/>
<rect x="913" y="481" width="8" height="8" fill="#2FB2FF"/>
<rect x="735" y="700" width="8" height="8" fill="#2FB2FF"/>
<rect x="821" y="318" width="8" height="8" fill="#2FB2FF"/>
<rect x="241" y="788" width="8" height="8" fill="#2FB2FF"/>
<rect x="962" y="855" width="8" height="8" fill="#2FB2FF"/>
<rect x="1317" y="448" width="8" height="8" fill="#2FB2FF"/>
<rect x="61" y="662" width="8" height="8" fill="#2FB2FF"/>
<rect x="1083" y="682" width="8" height="8" fill="#2FB2FF"/>
<rect x="743" y="95" width="8" height="8" fill="#2FB2FF"/>
<rect x="301" y="39" width="8" height="8" fill="#2FB2FF"/>
<rect x="24" y="166" width="8" height="8" fill="#2FB2FF"/>
<rect x="309" y="849" width="18" height="20.25" fill="#2FB2FF"/>
<rect x="1424" y="204" width="18" height="20.25" fill="#2FB2FF"/>
<rect x="1088" y="361" width="18" height="20.25" fill="#2FB2FF"/>
<rect x="1039" y="796" width="8" height="8" fill="#2FB2FF"/>
</svg>
