<svg width="24" height="25" viewBox="0 0 24 25" fill="none" xmlns="http://www.w3.org/2000/svg">
<g clip-path="url(#clip0_74_1334)">
<path fill-rule="evenodd" clip-rule="evenodd" d="M12 24.8944C18.627 24.8944 24 19.5214 24 12.8944C24 6.26741 18.627 0.894409 12 0.894409C5.373 0.894409 0 6.26741 0 12.8944C0 19.5214 5.373 24.8944 12 24.8944ZM13.906 7.89441C13.906 7.89441 15.548 7.85841 17.274 9.14441C17.274 9.14441 19 12.2514 19 16.0844C19 16.0844 17.981 17.8114 15.332 17.8944C15.332 17.8944 14.901 17.3824 14.541 16.9304C16.111 16.4904 16.711 15.5134 16.711 15.5134C16.2792 15.7986 15.8166 16.0341 15.332 16.2154C14.732 16.4654 14.157 16.6324 13.594 16.7274C12.5675 16.9151 11.5151 16.911 10.49 16.7154C9.806 16.5854 9.22 16.3944 8.728 16.2044C8.40784 16.0822 8.09702 15.9368 7.798 15.7694C7.781 15.7604 7.763 15.7514 7.745 15.7394C7.72692 15.7305 7.71065 15.7183 7.697 15.7034C7.58192 15.6413 7.4698 15.5739 7.361 15.5014C7.361 15.5014 7.937 16.4544 9.459 16.9064C9.099 17.3584 8.656 17.8944 8.656 17.8944C6.006 17.8114 5 16.0844 5 16.0844C5 12.2514 6.726 9.14441 6.726 9.14441C8.452 7.85841 10.094 7.89441 10.094 7.89441L10.214 8.03741C8.056 8.65641 7.062 9.59741 7.062 9.59741C7.062 9.59741 7.325 9.45441 7.769 9.25141C9.051 8.69141 10.07 8.53741 10.489 8.50141L10.516 8.49741C10.577 8.48741 10.631 8.47741 10.693 8.47741C12.7709 8.19695 14.8841 8.58909 16.723 9.59641C16.723 9.59641 15.776 8.70441 13.738 8.08541L13.906 7.89541V7.89441ZM8.536 13.6564C8.536 14.3824 9.087 14.9774 9.759 14.9774C10.442 14.9774 10.981 14.3824 10.981 13.6564C10.993 12.9304 10.441 12.3344 9.758 12.3344C9.075 12.3344 8.536 12.9304 8.536 13.6564ZM12.911 13.6564C12.911 14.3824 13.462 14.9774 14.134 14.9774C14.817 14.9774 15.356 14.3824 15.356 13.6564C15.356 12.9304 14.816 12.3344 14.133 12.3344C13.45 12.3344 12.911 12.9304 12.911 13.6564Z" fill="black"/>
</g>
<defs>
<clipPath id="clip0_74_1334">
<rect width="24" height="24" fill="white" transform="translate(0 0.894409)"/>
</clipPath>
</defs>
</svg>
