<svg width="24" height="25" viewBox="0 0 24 25" fill="none" xmlns="http://www.w3.org/2000/svg">
<g clip-path="url(#clip0_74_1332)">
<path d="M24 12.8944C24 6.26741 18.627 0.894409 12 0.894409C5.373 0.894409 0 6.26741 0 12.8944C0 18.8844 4.388 23.8484 10.125 24.7484V16.3644H7.078V12.8944H10.125V10.2504C10.125 7.24341 11.917 5.58241 14.658 5.58241C15.971 5.58241 17.344 5.81641 17.344 5.81641V8.76941H15.83C14.339 8.76941 13.874 9.69441 13.874 10.6434V12.8944H17.202L16.67 16.3634H13.874V24.7484C19.612 23.8484 24 18.8844 24 12.8944Z" fill="black"/>
</g>
<defs>
<clipPath id="clip0_74_1332">
<rect width="24" height="24" fill="white" transform="translate(0 0.894409)"/>
</clipPath>
</defs>
</svg>
