<svg width="24" height="25" viewBox="0 0 24 25" fill="none" xmlns="http://www.w3.org/2000/svg">
<g clip-path="url(#clip0_74_1330)">
<path fill-rule="evenodd" clip-rule="evenodd" d="M12 24.8944C18.627 24.8944 24 19.5214 24 12.8944C24 6.26741 18.627 0.894409 12 0.894409C5.373 0.894409 0 6.26741 0 12.8944C0 19.5214 5.373 24.8944 12 24.8944ZM14.829 7.19641C14.09 7.16241 13.869 7.15641 12 7.15641C10.13 7.15641 9.91 7.16241 9.171 7.19641C8.489 7.22741 8.118 7.34141 7.871 7.43741C7.545 7.56441 7.311 7.71541 7.066 7.96041C6.83378 8.18635 6.65508 8.46141 6.543 8.76541C6.447 9.01241 6.333 9.38341 6.303 10.0654C6.268 10.8044 6.261 11.0254 6.261 12.8944C6.261 14.7644 6.268 14.9844 6.302 15.7234C6.333 16.4054 6.447 16.7764 6.543 17.0234C6.67 17.3494 6.821 17.5834 7.066 17.8274C7.312 18.0724 7.545 18.2244 7.871 18.3514C8.118 18.4474 8.489 18.5614 9.171 18.5914C9.909 18.6264 10.131 18.6334 12 18.6334C13.87 18.6334 14.09 18.6254 14.829 18.5924C15.511 18.5614 15.882 18.4474 16.129 18.3514C16.455 18.2244 16.689 18.0734 16.933 17.8274C17.178 17.5824 17.33 17.3494 17.457 17.0224C17.553 16.7764 17.667 16.4054 17.697 15.7224C17.732 14.9844 17.739 14.7634 17.739 12.8944C17.739 11.0244 17.731 10.8044 17.698 10.0654C17.667 9.38341 17.553 9.01241 17.457 8.76541C17.3448 8.46121 17.1658 8.1861 16.933 7.96041C16.707 7.72822 16.432 7.54952 16.128 7.43741C15.882 7.34141 15.511 7.22741 14.828 7.19741L14.829 7.19641ZM9.114 5.93641C9.86 5.90241 10.099 5.89441 12 5.89441C13.901 5.89441 14.14 5.90241 14.886 5.93641C15.631 5.97041 16.14 6.08941 16.586 6.26141C17.046 6.44141 17.436 6.68041 17.826 7.06941C18.215 7.45841 18.454 7.84941 18.633 8.30941C18.806 8.75441 18.924 9.26341 18.958 10.0084C18.993 10.7544 19.001 10.9934 19.001 12.8944C19.001 14.7954 18.992 15.0344 18.958 15.7804C18.924 16.5254 18.806 17.0344 18.633 17.4804C18.4574 17.9475 18.182 18.3707 17.826 18.7204C17.436 19.1094 17.046 19.3484 16.586 19.5274C16.141 19.7004 15.631 19.8184 14.886 19.8524C14.14 19.8864 13.901 19.8944 12 19.8944C10.1 19.8944 9.86 19.8864 9.114 19.8524C8.369 19.8184 7.86 19.7004 7.414 19.5274C6.94715 19.3514 6.52432 19.0757 6.175 18.7194C5.81895 18.3697 5.54354 17.9466 5.368 17.4794C5.195 17.0344 5.076 16.5254 5.042 15.7804C5.008 15.0344 5 14.7954 5 12.8944C5 10.9934 5.008 10.7544 5.042 10.0084C5.076 9.26341 5.195 8.75441 5.368 8.30841C5.546 7.84841 5.786 7.45841 6.175 7.06941C6.564 6.67941 6.955 6.44141 7.415 6.26241C7.86 6.08941 8.369 5.97041 9.114 5.93641ZM12 9.29941C11.0465 9.29941 10.1321 9.67817 9.45795 10.3524C8.78376 11.0266 8.405 11.941 8.405 12.8944C8.405 13.8479 8.78376 14.7623 9.45795 15.4365C10.1321 16.1107 11.0465 16.4894 12 16.4894C12.9535 16.4894 13.8679 16.1107 14.542 15.4365C15.2162 14.7623 15.595 13.8479 15.595 12.8944C15.595 11.941 15.2162 11.0266 14.542 10.3524C13.8679 9.67817 12.9535 9.29941 12 9.29941ZM12 15.2274C11.3813 15.2274 10.7878 14.9816 10.3503 14.5441C9.9128 14.1066 9.667 13.5132 9.667 12.8944C9.667 12.2757 9.9128 11.6823 10.3503 11.2447C10.7878 10.8072 11.3813 10.5614 12 10.5614C12.6187 10.5614 13.2122 10.8072 13.6497 11.2447C14.0872 11.6823 14.333 12.2757 14.333 12.8944C14.333 13.5132 14.0872 14.1066 13.6497 14.5441C13.2122 14.9816 12.6187 15.2274 12 15.2274ZM16.577 9.15741C16.577 9.38019 16.4885 9.59385 16.331 9.75138C16.1734 9.90891 15.9598 9.99741 15.737 9.99741C15.5142 9.99741 15.3006 9.90891 15.143 9.75138C14.9855 9.59385 14.897 9.38019 14.897 9.15741C14.897 8.93463 14.9855 8.72097 15.143 8.56344C15.3006 8.40591 15.5142 8.31741 15.737 8.31741C15.9598 8.31741 16.1734 8.40591 16.331 8.56344C16.4885 8.72097 16.577 8.93463 16.577 9.15741Z" fill="black"/>
</g>
<defs>
<clipPath id="clip0_74_1330">
<rect width="24" height="24" fill="white" transform="translate(0 0.894409)"/>
</clipPath>
</defs>
</svg>
