<svg width="123" height="41" viewBox="0 0 123 41" fill="none" xmlns="http://www.w3.org/2000/svg">
<path d="M122.259 6.10221L119.23 9.13161L118.734 9.1827L116.093 9.46112V20.2556L115.59 20.7614L113.066 23.285L108.606 23.755V10.2478L104.354 10.6948V21.4919L101.324 24.5213L96.8669 24.9887V23.9874L95.7481 25.1062L91.2857 25.5762V18.8226L89.8221 18.9759L86.6241 23.4L84.6854 26.271L79.0302 26.8636V25.8598L77.9088 26.9811L61.127 28.7461V27.7397L60.0057 28.8636L43.2188 30.6286V29.4945L42.1102 30.7436L37.6428 31.211V27.4945L33.8726 27.8904L29.7244 32.0437L25.3131 32.5086V17.9772L24.1943 19.1189L21.0602 19.4484V30.2455L18.0308 33.2749L13.571 33.7423V20.2352L7.40745 20.884V16.3654L10.4369 13.336L27.2212 11.571V12.5467L28.3451 11.456L45.1294 9.691V10.6284L46.2533 9.57095L50.708 9.10351V22.6107L55.5459 22.1024V11.3053L58.5753 8.27592L63.0351 7.80593V8.78167L64.159 7.69354L80.9382 5.92851V6.79698L82.0723 5.80846L86.5168 5.34102V14.7332L92.9332 5.87487L93.8988 4.54408L98.7775 4.05365V5.0626L99.8937 3.9336L104.354 3.46361V4.46745L105.472 3.34611L122.259 1.58364V6.10221ZM91.9268 3.56833L87.4926 8.0869L87.4772 4.03577L63.4796 6.55687V6.55432L54.3326 7.52495V10.0895L51.5509 10.3628V7.79826L27.6682 10.3194L5.80335 12.6182L3.10345 15.3156L3.0166 15.4024V25.0041L9.18014 24.3553V37.8624L18.6362 36.8688V34.3017L20.9197 34.0642V36.6287L28.8559 35.7934L33.0067 31.6376L33.2238 31.6197L33.2519 31.7806V35.3311L38.828 34.7462L74.6393 30.9837L83.0328 30.0999L85.0404 27.3234L85.8987 27.234L86.8949 25.8572V29.6963L101.932 28.1127V25.5481L104.216 25.308V27.8751L113.672 26.8789V24.3144L118.767 23.7652L118.877 23.755V10.7561L122.704 10.4547V0.332031" fill="white"/>
<path d="M32.8 21.9798L37.0044 17.7728L32.8 18.2147" fill="white"/>
<path d="M41.9824 19.8112L43.2187 19.681V18.5724L42.2634 19.5251L41.9824 19.8112Z" fill="white"/>
<path d="M96.8671 11.0065V9.24915L95.4827 11.1521" fill="white"/>
<mask id="mask0_92_6380" style="mask-type:luminance" maskUnits="userSpaceOnUse" x="0" y="0" width="123" height="41">
<path d="M0 0H123V40.8944H0V0Z" fill="white"/>
</mask>
<g mask="url(#mask0_92_6380)">
<path d="M118.877 23.755L118.768 23.7652L113.674 24.3144V26.8789L104.216 27.8751V25.308L101.932 25.5481V28.1127L86.8949 29.6963V25.8572L85.8987 27.234L85.0379 27.3234L83.0328 30.0999L74.6393 30.9837L38.828 34.7462L33.2519 35.3311V31.7807L33.2238 31.6197L33.0067 31.6376L28.856 35.7935L20.9223 36.6287V34.0642L18.6362 34.3018V36.8688L9.18017 37.8625V24.3553L3.01663 25.0041V15.4024L5.80083 12.6183L27.6682 10.3194L51.551 7.79828V10.3628L54.3326 10.0895V7.52497L63.4796 6.55434V6.55689L87.4773 4.03579L87.4926 8.08692L91.9269 3.56835L122.701 0.332051V10.4548L118.877 10.7562V23.755ZM119.176 11.032L123.003 10.7306V-0.00256348L91.8426 3.27461L91.7889 3.28227L87.7889 7.35894L87.7761 3.70373L63.7784 6.22483V6.22228L54.0338 7.25422V9.81874L51.8498 10.0333V7.46622L27.9671 9.98732L5.66545 12.3322L2.71778 15.2798V15.4893L0 18.2071V28.036L6.16354 27.3872V40.8944L17.9057 39.6607L19.0858 39.5381L35.8139 37.7782L53.7196 35.8982L71.6227 34.0157L80.2486 33.1089L83.8757 32.7257V32.7283L93.6357 31.7015L99.2143 31.1165V31.114L101.199 30.9045V30.9071L110.956 29.8802L119.34 24.3068L119.051 24.036L119.176 24.0232" fill="black"/>
</g>
<path d="M115.684 6.52881H115.687V8.90176H115.684V6.52881ZM103.84 10.1483V21.1726L103.756 21.1829V21.2442L103.702 21.2952L102.308 21.4434L103.7 21.2952L103.756 21.2416V21.1803L100.244 21.5532V4.49814H100.246V4.41385L103.84 4.03581V5.64247L103.873 5.62204L103.838 5.64502V10.1483L103.945 10.1355V5.5735H103.947V10.1355L103.84 10.1483ZM89.697 18.3885L89.7838 18.3757L89.7812 18.3782L89.697 18.3885ZM79.6279 23.824L80.5296 23.7295V23.7321L79.6279 23.8266V23.824ZM78.905 23.9032V23.7959L64.509 25.3081V8.25808L64.4809 8.26063L64.509 8.25552V8.17379L80.4223 6.49816V8.03841H80.4248V10.1304L68.2893 11.4024L68.0978 11.4203V14.5493L68.3379 14.5263L80.4248 13.2517V16.8814L71.2906 17.8444V16.9121L70.933 17.2416L68.3838 19.5481L68.1872 19.7295L68.4094 19.8827L70.956 21.6656L71.2906 21.9006V20.9657L80.4248 20.0028V23.6324L79.6279 23.7167V23.7193L78.905 23.7934V23.9032ZM10.7025 13.9133L10.6846 13.9389V17.5634L16.8226 16.9197L10.6821 17.566V13.9363L10.7025 13.9133ZM46.5164 10.1457L46.588 10.138L46.519 10.1483L46.496 10.1661V27.3055L62.6264 25.612V10.0078V25.6146L46.4934 27.3081V10.1661L46.5164 10.1457ZM62.5192 10.1099V25.5175L46.6033 27.1931V10.1355H46.6007V10.0512L50.1921 9.67316V23.1829L50.4296 23.1573L56.1436 22.5571L58.7337 22.2812L58.9304 22.2633V8.8379H58.9278V8.75617L62.5192 8.37813V10.1099ZM28.5878 29.1881L32.0718 28.8432L32.2123 28.7053L32.0744 28.8458L28.5878 29.1906V29.1881ZM44.7233 16.5391L44.1818 17.0704L44.7208 16.5417V11.8316L44.7233 11.829V16.5391ZM44.7233 27.4945H44.7208V19.9313H44.7233V27.4945ZM43.8191 20.0258L44.3376 19.9721L43.8191 20.0283V20.0258ZM42.192 19.1726L43.3951 17.9721V17.967L43.3976 17.9644V17.9772L42.192 19.1726ZM40.9174 27.8905L42.5777 27.7193L40.9174 27.893V27.8905ZM26.8049 13.7856L26.8151 13.7754V15.8699V13.7779L26.8049 13.7856ZM10.7843 14.5059V13.9005H10.7868V13.8162L26.7078 12.1406V13.8775L26.7052 13.8801V15.7754L20.7384 16.4038L20.5468 16.4216V18.9019H20.5443V29.9288L20.46 29.9365L16.9529 30.3068V16.7971L16.7128 16.8227L10.7843 17.4434V14.5059ZM33.7321 27.3055L32.3554 28.6849L32.22 28.7002L28.6925 29.0706V12.0206H28.695V11.9363L44.616 10.2607V11.9261L44.6109 11.9286V16.4523L43.8191 17.2441L41.0017 20.0462L40.57 20.4753L41.1754 20.4115L43.8165 20.1356L44.6109 20.0513V27.3949L41.0247 27.773V24.059L40.7846 24.082L36.5751 24.5239L36.4959 24.5316L36.4423 24.5852L33.7347 27.3055H33.7321ZM64.417 8.2734L64.4017 8.29384V25.4281H64.3991V8.29128L64.417 8.2734ZM71.1859 20.8687L80.5296 19.8878V19.8904L71.1859 20.8712V20.8687ZM68.3557 19.7218L71.1834 21.6937V21.6963L68.3557 19.7218ZM71.1859 17.9568L80.5296 16.9785L71.1859 17.9619V17.9568ZM80.5296 7.9439V7.94645L80.4529 8.01286L80.5296 7.9439ZM82.315 6.38833L82.3022 6.40365L82.2895 6.99625L82.2614 8.866L84.2461 10.2555L84.665 10.5467L84.9894 10.7792L84.665 10.5493L84.2435 10.2555L82.2588 8.866L82.2895 6.99625L82.2997 6.40365L82.315 6.38833ZM82.3227 6.38322H82.3457L82.3201 6.38577L82.3227 6.38322ZM94.8745 5.04732L94.8362 5.05243L94.3458 5.72676L86.1107 17.0679V17.0653L94.3458 5.72676L94.8362 5.04987L94.8745 5.04732ZM97.4646 11.3539L98.3688 11.2594L97.4646 11.3565V11.3539ZM95.4825 11.1521L96.8643 9.24915V11.0091L95.4825 11.1521ZM97.1657 11.2773H97.1632V8.3296L94.8515 11.5199H94.8464L97.1657 8.32704V11.2773ZM82.3048 23.543L86.0469 23.1854L82.3048 23.5456V23.543ZM89.605 18.4012L86.264 23.022L86.1516 23.0322L86.149 23.0347L82.4095 23.423V14.1253L85.4415 11.2773L85.6331 11.0985L85.4185 10.9427L84.7288 10.465L84.2461 10.1227L82.4095 8.84301V6.37556H82.4121V6.29126L86.0034 5.91323V16.46L86.1107 16.3118V16.3169L86.0034 16.4625V17.3948L86.3917 16.8635L94.4914 5.70888L94.9793 5.0371L95.0303 4.96558L98.2615 4.6233V6.4343L98.3688 6.32702L98.2641 6.4343V6.45219L97.4646 7.55054L94.6727 11.3948L94.3892 11.7856L94.8694 11.7345L97.462 11.4612V11.4637L98.2641 11.3794V21.7601L94.6651 22.1382V15.3871L94.4301 15.4101L91.6433 15.7039L91.5488 15.7166L91.4952 15.7933L89.605 18.4012ZM100.162 4.51347L100.142 4.53646V21.6707H100.139V4.53646L100.162 4.51347ZM105.746 3.92087L105.738 3.92853L105.746 3.91831L105.789 3.91576L105.746 3.92087ZM115.58 8.91454V19.9389L115.498 19.9491V20.0079L115.48 20.0232L115.493 20.0104V19.9491L113.82 20.1228L111.991 20.3144V6.80979L111.751 6.83533L105.825 7.45603V3.82636L121.743 2.15329V5.78296L121.659 5.79317L119.375 6.03328L115.776 6.40876L115.577 6.4343V8.91454H115.58ZM111.881 20.437V6.92984V20.4345L113.82 20.2301L114.645 20.1458L113.822 20.2327L111.881 20.437ZM100.193 4.50325L100.167 4.50836L100.17 4.5058L100.193 4.50325ZM58.8205 22.1663V8.87877L58.8486 8.84812L58.8742 8.84557L58.8512 8.85068L58.8231 8.87877V22.1688L56.1436 22.4498V22.4472L58.8205 22.1663ZM104.354 4.46749V3.46365L99.8937 3.93364L98.7775 5.0652V4.05625L93.8962 4.54412L92.9333 5.87491L86.5168 14.7358V5.34106L82.0724 5.8085L80.9382 6.79702V5.92855L64.159 7.69102L63.0326 8.78171V7.80597L58.5753 8.27596L55.5459 11.3054V22.1024L50.708 22.6107V9.10355L46.2533 9.57099L45.1294 10.6285V9.69104L28.3451 11.4535L27.2212 12.5468V11.571L10.4369 13.336L7.40747 16.3654V20.884L13.571 20.2352V33.7424L18.0308 33.2749L21.0602 30.2455V19.4485L24.1944 19.119L25.3131 17.9772V32.5086L29.7219 32.0438L33.8726 27.8905L37.6428 27.4945V31.2111L42.1103 30.7436L43.2188 29.4946V30.6287L60.0057 28.8637L61.1271 27.7398V28.7462L77.9088 26.9811L79.0302 25.8572V26.8636L84.6854 26.271L86.6241 23.4L89.8221 18.9759L91.2857 18.8227V25.5763L95.7481 25.1063L96.8669 23.9875V24.9888L101.324 24.5213L104.354 21.4919V10.6949L108.606 10.2479V23.755L113.064 23.2851L115.59 20.7614L116.093 20.2556V9.46116L118.734 9.18274L119.23 9.13165L122.259 6.10224V1.58368L105.472 3.34615" fill="black"/>
<path d="M32.7999 21.9772V18.2147L37.0043 17.7728L32.7999 21.9772ZM37.8089 17.3897H37.8063L32.5011 17.9465L37.814 17.3871L37.8089 17.3897ZM38.3198 17.0321L38.3223 17.0295L38.4883 17.0117L40.8332 14.6745L41.2623 14.2428L40.6595 14.3041L32.4781 15.1649L32.2865 15.1904V17.6656L32.3325 17.663L32.2839 17.6681V23.2212L32.6518 22.8559L38.4883 17.0142" fill="black"/>
</svg>
