<svg width="1440" height="31" viewBox="0 0 1440 31" fill="none" xmlns="http://www.w3.org/2000/svg">
<path fill-rule="evenodd" clip-rule="evenodd" d="M1440 31H0V19.0119H79.7715L86.649 29.7477L86.6633 29.72L86.6805 29.7477L98.6565 9.6562H108.347L114.087 18.8733H322.498V18.8769L390.7 18.9227L392.246 21.3948L389.755 25.3892H394.747L392.246 21.3948L393.82 18.8733H396.702L403.491 29.7477L403.5 29.7344L403.505 29.7477L421.543 0.856164L431.114 16.1685L554.985 16.2143L557.153 12.7454L563.64 23.1401L567.967 16.2143L623.664 16.1685L629.092 24.8625H654.317L663.811 9.6562H667.568L691.003 9.82133L695.627 2.41464L702.562 13.5265L706.082 19.1843H767.367L769.846 23.1449L765.724 29.7477H773.977L769.846 23.1449L772.319 19.1843H881.522L888.399 29.7477L888.413 29.72L888.43 29.7477L900.406 9.6562H910.097L915.836 18.8733H1124.25V18.9022L1154.95 18.9227L1156.5 21.3948L1154.01 25.3892H1159L1156.5 21.3948L1158.07 18.8733H1160.95L1167.74 29.7477L1167.75 29.7344L1167.76 29.7477L1185.79 0.856164L1195.36 16.1685L1281.73 16.2143L1283.9 12.7454L1290.39 23.1401L1294.72 16.2143L1350.41 16.1685L1355.84 24.8625H1381.07L1390.56 9.6562H1394.32L1417.75 9.82133L1422.38 2.41464L1429.31 13.5265L1432.83 19.0336H1440V31ZM39.0202 23.5065H35.1233V29.7477H39.0202V23.5065ZM52.02 23.5065H50.7217V29.7477H52.02V23.5065ZM61.1115 23.5065H59.8132V29.7477H61.1115V23.5065ZM63.0825 23.5065H61.782V29.7477H63.0825V23.5065ZM667.487 15.6611H666.187V17.7403H667.487V15.6611ZM667.487 19.8231H666.187V21.9022H667.487V19.8231ZM677.564 15.6611H676.262V21.9022H677.564V15.6611ZM682.544 15.6611H681.243V17.7403H682.544V15.6611ZM840.77 23.5065H836.873V29.7477H840.77V23.5065ZM853.77 23.5065H852.472V29.7477H853.77V23.5065ZM862.862 23.5065H861.564V29.7477H862.862V23.5065ZM864.833 23.5065H863.532V29.7477H864.833V23.5065ZM1394.24 15.6611H1392.94V17.7403H1394.24V15.6611ZM1394.24 19.8231H1392.94V21.9022H1394.24V19.8231ZM1404.31 15.6611H1403.01V21.9022H1404.31V15.6611ZM1409.29 15.6611H1407.99V17.7403H1409.29V15.6611ZM560.231 7.82894L557.153 12.7454L554.083 7.82894H560.231ZM767.347 19.1517H772.339L772.319 19.1843H767.367L767.347 19.1517ZM1286.98 7.82894L1283.9 12.7454L1280.83 7.82894H1286.98Z" fill="#F8EE02"/>
</svg>
