<svg width="576" height="192" viewBox="0 0 576 192" fill="none" xmlns="http://www.w3.org/2000/svg">
<mask id="mask0_74_1432" style="mask-type:luminance" maskUnits="userSpaceOnUse" x="0" y="12" width="565" height="180">
<path d="M0 12.1299H564.047V191.498H0V12.1299Z" fill="white"/>
</mask>
<g mask="url(#mask0_74_1432)">
<path d="M533.012 103.65V75.2676L548.447 73.6448V61.6213L555.021 47.8447L561.868 14.1909L478.024 23.0042L432.346 27.8135V27.8254L425.275 29.3179L405.006 42.7155L401.026 43.1301L394.499 52.121V31.7937L368.367 34.5419L284.535 43.3552V43.3315L238.858 48.1527V60.1643L226.811 61.4318V49.4084L181.122 54.2177L116.835 60.9698L13.4212 71.8442L0 85.2655V131.286L28.8681 128.254V191.498L83.8443 185.717V185.729L89.3762 185.137L167.7 176.904V176.916L251.556 168.091V168.103L335.401 159.29L375.783 155.037H375.795L392.782 153.248V153.26L438.483 148.451L464.602 145.702L473.901 144.719V144.731L519.579 139.922L558.835 113.826L540.261 96.2583" fill="#731DD7"/>
</g>
<mask id="mask1_74_1432" style="mask-type:luminance" maskUnits="userSpaceOnUse" x="12" y="0" width="564" height="179">
<path d="M12.1301 0H576V178.918H12.1301V0Z" fill="white"/>
</mask>
<g mask="url(#mask1_74_1432)">
<path d="M575.289 0.769531L430.155 16.0387L410.408 36.1646L410.337 18.1117L381.801 21.1205L297.956 29.9338V29.9101L253.724 34.601V46.6126L242.104 47.7616V35.7382L194.555 40.7845V40.7963L130.268 47.5484V47.5366L26.8544 58.411L13.4213 71.8441V117.865L42.2894 114.82V178.077L87.9785 173.279V161.256L97.2774 160.284V172.296L135.444 168.28L148.842 154.859H148.866L154.883 148.83L155.014 148.818V166.231L181.133 163.483L264.978 154.67V154.681L348.822 145.856V145.868L389.204 141.616L398.61 128.609L402.637 128.194L406.203 123.255V139.839L451.904 135.029L478.024 132.281V120.27L487.323 119.298V131.31L533.012 126.5V114.489L557.378 111.871V51.0074L575.289 49.5977" fill="#6BB9EB"/>
</g>
<mask id="mask2_74_1432" style="mask-type:luminance" maskUnits="userSpaceOnUse" x="0" y="0" width="576" height="192">
<path d="M0 0H576V191.499H0V0Z" fill="white"/>
</mask>
<g mask="url(#mask2_74_1432)">
<path d="M575.289 0.769871L430.155 16.0391L410.408 36.165L410.337 18.1121L381.801 21.1209L297.956 29.9341V29.9104L253.724 34.6014V46.6129L242.104 47.762V35.7385L194.555 40.7848V40.7967L130.268 47.5488V47.5369L26.8544 58.4113L13.4213 71.8444V117.865L42.2894 114.821V178.077L87.9785 173.28V161.256L97.2774 160.285V172.296L135.444 168.281L148.842 154.859H148.866L154.883 148.83L155.014 148.818V166.231L181.133 163.483L264.978 154.67V154.682L348.822 145.857V145.869L389.204 141.616L398.61 128.609L402.637 128.195L406.203 123.255V139.839L451.904 135.03L478.024 132.281V120.27L487.323 119.299V131.31L533.012 126.501V114.489L557.378 111.871V51.0077L575.289 49.5981V0.769871Z" stroke="#731DD7" stroke-width="1.40102" stroke-miterlimit="10"/>
</g>
<path d="M455.007 52.8084L444.145 53.9456L455.007 38.9963V52.8084ZM152.194 106.304V84.0338L177.07 81.4159L152.194 106.304ZM494.549 17.0106L487.832 23.7271L487.263 24.1062V17.7805L468.429 19.7588L461.795 26.4635L461.712 26.4753V26.5464L461.144 27.115V20.5406L440.473 22.6136L425.144 43.8293L403.739 73.3134V26.5701L384.916 28.5483L377.607 34.9095V29.3183L301.072 37.3616L293.775 44.4335V38.1197L274.94 40.0979L261.519 53.5192V104.764L236.051 107.441V44.1847L217.216 46.163L209.931 52.998V46.9329L133.36 54.988L126.074 62.06V55.7343L49.5154 63.7894L36.0823 77.2107V96.235L64.9504 93.2025V156.459L83.7851 154.481L97.2182 141.047V89.8146L112.653 88.1917L119.204 81.4988L119.358 81.4752V81.333L119.938 80.7407V150.678L138.548 148.712L145.241 142.007H145.253L151.957 135.29H151.969L157.987 129.273L177.675 127.2V144.601L196.509 142.623L203.795 134.438V141.865L280.354 133.822L287.651 126.525V133.052L364.186 125.008L370.903 118.292V112.286L371.483 112.227V124.238L384.916 122.829L395.779 121.703L404.509 108.756L419.849 87.5283L428.876 86.5925V118.209L447.722 116.231L455.007 108.945V115.461L473.842 113.482L487.263 100.061V48.8164L509.984 46.4354V109.68L528.83 107.702L542.251 94.2804V43.0357L557.687 41.4128L571.108 27.9916V8.96729" fill="#731DD7"/>
<mask id="mask3_74_1432" style="mask-type:luminance" maskUnits="userSpaceOnUse" x="0" y="0" width="576" height="192">
<path d="M0 0H576V191.499H0V0Z" fill="white"/>
</mask>
<g mask="url(#mask3_74_1432)">
<path d="M455.007 52.8081L444.145 53.9453L455.007 38.996V52.8081ZM152.194 106.304V84.0335L177.07 81.4156L152.194 106.304ZM494.549 17.0103L487.832 23.7268L487.263 24.1059V17.7802L468.429 19.7585L461.795 26.4632L461.712 26.475V26.5461L461.144 27.1147V20.5403L440.473 22.6133L425.144 43.829L403.739 73.3131V26.5698L384.916 28.548L377.607 34.9092V29.318L301.072 37.3613L293.775 44.4332V38.1194L274.94 40.0976L261.519 53.5189V104.764L236.051 107.441V44.1844L217.216 46.1627L209.931 52.9977V46.9326L133.36 54.9877L126.074 62.0597V55.734L49.5154 63.7891L36.0823 77.2104V96.2347L64.9504 93.2022V156.458L83.7851 154.48L97.2182 141.047V89.8143L112.653 88.1914L119.204 81.4986L119.358 81.4749V81.3327L119.938 80.7404V150.678L138.548 148.711L145.241 142.007H145.253L151.957 135.29H151.969L157.987 129.272L177.675 127.199V144.601L196.509 142.623L203.795 134.437V141.865L280.354 133.821L287.651 126.524V133.051L364.186 125.008L370.903 118.291V112.286L371.483 112.226V124.238L384.916 122.828L395.779 121.703L404.509 108.756L419.849 87.528L428.876 86.5922V118.209L447.722 116.23L455.007 108.945V115.46L473.842 113.482L487.263 100.061V48.8161L509.984 46.4351V109.68L528.83 107.701L542.251 94.2801V43.0354L557.687 41.4125L571.108 27.9913V8.96699L494.549 17.0103Z" stroke="#731DD7" stroke-width="2.80204" stroke-miterlimit="10"/>
</g>
<path d="M78.8809 79.2243L50.0128 82.2568V64.2394L125.565 56.3027V74.3083L96.7088 77.3526V140.597L78.8809 142.469" fill="#FBEB3C"/>
<path d="M468.938 20.2085L486.766 18.3369V99.6106L468.938 101.482V20.2085Z" fill="#FBEB3C"/>
<path d="M385.414 65.7198L400.209 52.0142L385.2 41.5189L385.414 29.0098L403.242 27.1263V79.9228L444.868 22.5894L460.646 21.085V30.5379L443.079 54.5611L460.646 52.725V102.347L442.795 104.23V72.6022L429.196 74.0355L404.106 108.459L385.414 110.26" fill="#FBEB3C"/>
<path d="M217.725 46.6129L235.541 44.7413V107.998L275.449 103.804V40.5479L293.265 38.6763V119.938L217.725 127.875" fill="#FBEB3C"/>
<path d="M151.685 71.5717V107.524L191.854 67.3427L151.685 71.5717ZM133.869 55.4378L209.421 47.4893V77.4472L191.345 95.2277L209.421 93.3323V128.751L191.605 130.623V113.21L171.325 115.342L151.614 134.935L133.869 136.688" fill="#FBEB3C"/>
<path d="M301.581 37.8112L377.11 29.8745V47.8801L319.397 53.9451V67.5677L377.11 61.5027V79.5082L333.351 84.1044V80.3256L320.108 92.349L333.351 101.601V97.727L377.11 93.1308V111.136L301.581 119.073" fill="#FBEB3C"/>
<path d="M523.914 32.445L495.058 35.4775V17.4601L570.61 9.52344V27.5408L541.742 30.5733V93.8297L523.914 95.7013" fill="#FBEB3C"/>
<path d="M126.075 55.7456L49.5154 63.7889V82.8132L78.3716 79.7806V143.037L97.2182 141.059V77.8024L126.075 74.7699V55.7456ZM125.068 56.8591V73.8578L97.1116 76.7955L96.2114 76.8903V140.147L79.3785 141.912V78.6671L78.2769 78.7738L50.5223 81.6997V64.6892" fill="#731DD7"/>
<path d="M487.263 17.7803L468.429 19.7585V102.039L487.263 100.061V17.7803ZM486.257 18.8938V99.1488L469.436 100.914V20.6706" fill="#731DD7"/>
<path d="M461.155 20.5405L444.465 22.2937L403.739 78.3715V26.57L384.916 28.5483V41.934L399.415 52.0739L384.916 65.7202V110.817L404.509 108.756L429.255 74.5335L442.297 73.1594V104.788L461.155 102.809V52.1569L444.157 53.9456L461.155 30.5265V20.5405ZM460.149 21.654V30.2067L443.339 53.3533L442.001 55.1894L444.252 54.9525L460.149 53.2822V101.897L443.304 103.674V72.0459L442.19 72.1643L429.148 73.5266L428.698 73.574L428.437 73.9412L403.964 107.796L385.923 109.704V66.1585L400.102 52.8084L401.003 51.9673L399.984 51.2566L385.923 41.4128V29.4604L402.732 27.6835V81.4751L404.556 78.9638L445.01 23.2414" fill="#731DD7"/>
<path d="M293.775 38.1191L274.94 40.0974V103.354L236.05 107.441V44.1842L217.216 46.1624V128.443L293.775 120.4V38.1191ZM292.768 39.2326V119.488L218.223 127.318V47.0627L235.044 45.2977V108.554L236.157 108.436L275.047 104.349L275.947 104.254V40.9977" fill="#731DD7"/>
<path d="M152.194 106.315V72.0219L190.492 67.9944L152.194 106.315ZM209.93 46.9326L133.359 54.9877V137.257L151.969 135.29L171.373 115.851L191.096 113.778V131.18L209.93 129.201V92.7757L192.719 94.5881L209.93 77.4473V46.9326ZM151.187 108.744L152.905 107.026L191.202 68.7051L193.216 66.6913L190.385 66.9875L152.088 71.0269L151.187 71.1216V108.744ZM208.924 48.0461V77.0327L192.008 93.8773L189.982 95.8793L192.825 95.5831L208.924 93.8892V128.289L192.103 130.066V112.653L190.989 112.771L171.266 114.844L170.911 114.88L170.662 115.14L151.507 134.331L134.366 136.131V55.888" fill="#731DD7"/>
<path d="M377.607 29.3179L301.072 37.3611V119.63L377.607 111.587V92.5624L332.842 97.277V100.629L320.913 92.2899L332.842 81.4629V84.6612L377.607 79.9585V60.9342L319.895 67.0111V54.4072L377.607 48.3422V29.3179ZM376.6 30.4314V47.43L319.788 53.4003L318.888 53.4951V68.1246L320.001 68.0061L376.6 62.0595V79.0582L333.849 83.5477V79.1885L332.167 80.7166L320.238 91.5436L319.291 92.3965L320.333 93.1191L332.262 101.459L333.849 102.56V98.1773L376.6 93.6877V110.675L302.079 118.516V38.2733" fill="#731DD7"/>
<path d="M571.108 8.96729L494.549 17.0106V36.0348L523.417 33.0142V96.2587L542.251 94.2804V31.0241L571.108 27.9916V8.96729ZM570.101 10.0808V27.0795L542.145 30.0172L541.245 30.112V93.3683L524.424 95.1452V31.8888L523.31 32.0073L495.555 34.9213V17.9227" fill="#731DD7"/>
</svg>
