<svg width="24" height="25" viewBox="0 0 24 25" fill="none" xmlns="http://www.w3.org/2000/svg">
<g clip-path="url(#clip0_74_1326)">
<path fill-rule="evenodd" clip-rule="evenodd" d="M12 24.8944C18.627 24.8944 24 19.5214 24 12.8944C24 6.26741 18.627 0.894409 12 0.894409C5.373 0.894409 0 6.26741 0 12.8944C0 19.5214 5.373 24.8944 12 24.8944ZM17.575 10.9914C17.575 14.6614 14.685 18.8944 9.403 18.8944V18.8924C7.84784 18.8959 6.32271 18.4643 5 17.6464C6.51252 17.8269 8.03614 17.4143 9.251 16.4954C8.651 16.4854 8.071 16.2924 7.589 15.9474C7.11148 15.6065 6.7538 15.1236 6.567 14.5674C6.997 14.6474 7.442 14.6304 7.864 14.5194C7.21919 14.3952 6.63585 14.0553 6.21 13.5554C5.79183 13.0646 5.56148 12.4412 5.56 11.7964V11.7614C5.96 11.9764 6.407 12.0954 6.864 12.1084C6.26105 11.7232 5.82981 11.1204 5.66 10.4254C5.49477 9.73569 5.60756 9.00865 5.974 8.40141C6.7014 9.26436 7.60092 9.96599 8.615 10.4614C9.635 10.9614 10.752 11.2474 11.895 11.3034C11.7516 10.7077 11.8154 10.0809 12.076 9.52641C12.3417 8.96494 12.7853 8.5069 13.338 8.22341C13.8984 7.93464 14.5364 7.83233 15.159 7.93141C15.7785 8.02767 16.3502 8.32162 16.789 8.76941C17.4302 8.6476 18.0467 8.41982 18.613 8.09541C18.3939 8.74484 17.9446 9.29159 17.35 9.63241C17.9184 9.56737 18.4742 9.41982 19 9.19441C18.6115 9.75472 18.1262 10.2413 17.567 10.6314C17.575 10.7514 17.575 10.8704 17.575 10.9914Z" fill="black"/>
</g>
<defs>
<clipPath id="clip0_74_1326">
<rect width="24" height="24" fill="white" transform="translate(0 0.894409)"/>
</clipPath>
</defs>
</svg>
