<svg width="24" height="25" viewBox="0 0 24 25" fill="none" xmlns="http://www.w3.org/2000/svg">
<g clip-path="url(#clip0_74_1328)">
<path fill-rule="evenodd" clip-rule="evenodd" d="M12 24.8944C18.627 24.8944 24 19.5214 24 12.8944C24 6.26741 18.627 0.894409 12 0.894409C5.373 0.894409 0 6.26741 0 12.8944C0 19.5214 5.373 24.8944 12 24.8944ZM17.47 8.66341C18.072 8.81141 18.547 9.24641 18.707 9.79941C19 10.8024 19 12.8944 19 12.8944C19 12.8944 19 14.9864 18.707 15.9894C18.547 16.5424 18.072 16.9774 17.469 17.1254C16.38 17.3944 12 17.3944 12 17.3944C12 17.3944 7.622 17.3944 6.53 17.1264C5.928 16.9774 5.453 16.5424 5.293 15.9894C5 14.9864 5 12.8944 5 12.8944C5 12.8944 5 10.8024 5.293 9.79941C5.453 9.24641 5.928 8.81141 6.53 8.66341C7.622 8.39441 12 8.39441 12 8.39441C12 8.39441 16.378 8.39441 17.47 8.66341ZM14.226 12.8944L10.567 10.9944V14.7944L14.227 12.8944H14.226Z" fill="black"/>
</g>
<defs>
<clipPath id="clip0_74_1328">
<rect width="24" height="24" fill="white" transform="translate(0 0.894409)"/>
</clipPath>
</defs>
</svg>
